# Blender 4.3.2
# www.blender.org
mtllib cube.mtl
o Cube
v 1.000000 1.000000 -1.000000
v 1.000000 -1.000000 -1.000000
v 1.000000 1.000000 1.000000
v 1.000000 -1.000000 1.000000
v -1.000000 1.000000 -1.000000
v -1.000000 -1.000000 -1.000000
v -1.000000 1.000000 1.000000
v -1.000000 -1.000000 1.000000
vn -0.0000 1.0000 -0.0000
vn -0.0000 -0.0000 1.0000
vn -1.0000 -0.0000 -0.0000
vn -0.0000 -1.0000 -0.0000
vn 1.0000 -0.0000 -0.0000
vn -0.0000 -0.0000 -1.0000
vt 0.0000 0.0000
vt 1.0000 0.0000
vt 0.0000 1.0000
vt 1.0000 1.0000
s 0
usemtl Material
f 1/1/1 5/3/1 7/4/1 3/2/1
f 4/1/2 3/3/2 7/4/2 8/2/2
f 8/1/3 7/3/3 5/4/3 6/2/3
f 6/1/4 2/3/4 4/4/4 8/2/4
f 2/1/5 1/3/5 3/4/5 4/2/5
f 6/1/6 5/3/6 1/4/6 2/2/6
